<svg width="165" height="102" viewBox="0 0 165 102" xmlns="http://www.w3.org/2000/svg"><title>conus-logo</title><g fill="none" fill-rule="evenodd"><path fill="#00ADEE" d="M76.012 59.831l7.27-6.795-3.197-46.994-11.782 32.474z"/><path fill="#78D1F3" d="M82.55 0l3.436 50.51L97.07 40.15z"/><path fill="#1B75BB" d="M66.775 42.727L54.15 77.517h25.207z"/><path fill="#08A1CD" d="M77.075 62.767l5.334 14.75h28.173l-12.45-34.43z"/><path d="M45.024 95.237c0 .519-.42.938-.939.938H32.698a.938.938 0 0 1-.938-.938v-6.87c0-.518.42-.938.938-.938h11.387c.519 0 .939.42.939.939v6.87zm1.067-13.45H30.82a5.004 5.004 0 0 0-5.001 5.006v9.935a5.004 5.004 0 0 0 5.001 5.006h15.27a5.004 5.004 0 0 0 5.002-5.006v-9.935a5.004 5.004 0 0 0-5.002-5.006zM22.834 96.196H6.879a.938.938 0 0 1-.938-.939v-6.869c0-.52.42-.939.938-.939h15.955v-5.642H5.002A5.004 5.004 0 0 0 0 86.813v9.934a5.005 5.005 0 0 0 5.002 5.008h17.832v-5.56zM131.4 81.806v12.772c0 .519-.42.939-.938.939h-9.276a.938.938 0 0 1-.938-.939V81.806h-6.665V96.73a5.003 5.003 0 0 0 5.002 5.006h14.384a5.004 5.004 0 0 0 5.003-5.006V81.806H131.4zM159.77 89.343H148.468s-.937-.026-.937-.876v-.532c0-.52.42-.939.937-.939h16.294v-.203a5.003 5.003 0 0 0-5.002-5.007h-13.8a5.004 5.004 0 0 0-5.002 5.007v2.393a5.005 5.005 0 0 0 5.002 5.007h11.315s.939.052.939.927v.482c0 .518-.42.938-.939.938h-16.317v.187a5.004 5.004 0 0 0 5.002 5.007h13.8a5.004 5.004 0 0 0 5.002-5.007v-1.225l-.003-1.161a4.986 4.986 0 0 0-4.989-4.998M110.596 85.773v15.953h-6.182V93.15zM90.013 81.795v13.052l9.77-11.6.002.002a3.426 3.426 0 0 1 2.801-1.454h7.598l-5.77 6.887v-.007l-9.87 11.757a3.428 3.428 0 0 1-2.686 1.294H83.83V81.795h6.182zM54.08 85.773v15.953h6.181V93.15zM74.662 81.796v13.052l-9.77-11.6-.002.001a3.428 3.428 0 0 0-2.803-1.453H54.49l5.771 6.886v-.007l9.869 11.757h.001a3.428 3.428 0 0 0 2.686 1.294h8.027v-19.93h-6.182z" fill="#1B75BB"/></g></svg>