<?xml version="1.0" encoding="utf-8"?>
<!-- Generator: Adobe Illustrator 22.1.0, SVG Export Plug-In . SVG Version: 6.00 Build 0)  -->
<svg version="1.1" id="Capa_1" xmlns="http://www.w3.org/2000/svg" xmlns:xlink="http://www.w3.org/1999/xlink" x="0px" y="0px"
	 viewBox="0 0 354.8 25" style="enable-background:new 0 0 354.8 25;" xml:space="preserve">
<style type="text/css">
	.st0{fill:#FFFFFF;}
</style>
<title>Stats</title>
<g id="Stats">
	<path class="st0" d="M3.7,13h3.6C7.7,13,8,13.3,8,13.6c0,0,0,0,0,0v9.7C8,23.7,7.7,24,7.3,24c0,0,0,0,0,0H3.7C3.3,24,3,23.7,3,23.4
		c0,0,0,0,0,0v-9.7C3,13.3,3.3,13,3.7,13C3.7,13,3.7,13,3.7,13z"/>
	<path class="st0" d="M17.7,6h3.6C21.7,6,22,6.3,22,6.6v16.8c0,0.4-0.3,0.6-0.7,0.6h-3.6c-0.4,0-0.7-0.3-0.7-0.6V6.6
		C17,6.3,17.3,6,17.7,6z"/>
	<path class="st0" d="M10.7,1h3.6C14.7,1,15,1.3,15,1.6c0,0,0,0,0,0v21.7c0,0.4-0.3,0.6-0.7,0.6c0,0,0,0,0,0h-3.6
		c-0.4,0-0.7-0.3-0.7-0.6c0,0,0,0,0,0V1.6C10,1.3,10.3,1,10.7,1C10.7,1,10.7,1,10.7,1z"/>
</g>
<g id="Access">
	<path class="st0" d="M70.8,23H69V1.6C69,1.3,68.8,1,68.5,1c0,0,0,0,0,0H56.6C56.3,1,56,1.3,56,1.6c0,0,0,0,0,0V23h-1.5
		c-0.4-0.1-0.6,0.2-0.6,0.5c0,0.3,0.2,0.5,0.5,0.5c0,0,0,0,0.1,0h16.2c0.3,0,0.5-0.2,0.6-0.5c0,0,0,0,0-0.1
		C71.3,23.1,71.1,22.9,70.8,23z M68,23H57V2h11V23z"/>
	<path class="st0" d="M58,3v19h9V3H58z M66,12h-2v-2h2V12z"/>
</g>
<g id="Perimeter">
	<path class="st0" d="M83.9,14.2c0.1,0.2,0,0.5-0.2,0.7c0,0,0,0,0,0c-0.2,0.1-0.5,0-0.6-0.2c0,0,0,0,0,0l0,0c-0.4-0.9-0.6-2-0.4-3
		c0.1-0.3,0.3-0.4,0.6-0.4c0.3,0.1,0.4,0.3,0.4,0.6c0,0,0,0,0,0C83.4,12.6,83.5,13.4,83.9,14.2z"/>
	<path class="st0" d="M84.2,10.2c0,0.1-0.1,0.1-0.2,0.2c-0.2,0.1-0.4,0.1-0.5-0.1c-0.2-0.2-0.3-0.5-0.1-0.7c0,0,0,0,0,0
		c0.6-0.9,1.5-1.5,2.5-1.9c0.3-0.1,0.5,0,0.7,0.2c0.1,0.3,0,0.5-0.2,0.7c0,0-0.1,0-0.1,0C85.4,9,84.7,9.5,84.2,10.2z"/>
	<path class="st0" d="M87.6,17c0,0.2-0.1,0.3-0.3,0.4c-0.1,0-0.2,0-0.2,0c-1.1-0.1-2-0.5-2.8-1.2c-0.2-0.2-0.2-0.5,0-0.7
		c0.2-0.2,0.5-0.2,0.7,0c0.6,0.6,1.4,0.9,2.3,1C87.4,16.5,87.6,16.7,87.6,17C87.6,17,87.6,17,87.6,17z"/>
	<path class="st0" d="M90.1,9.5c-0.6-0.6-1.4-0.9-2.3-1c-0.3,0-0.5-0.3-0.5-0.5c0-0.3,0.3-0.5,0.5-0.5c1,0.1,2,0.5,2.8,1.2
		c0.2,0.2,0.2,0.5,0,0.7c0,0,0,0,0,0c0,0.1-0.1,0.1-0.2,0.1C90.4,9.6,90.3,9.6,90.1,9.5z"/>
	<path class="st0" d="M91.5,14.7c0.2,0.2,0.3,0.5,0.1,0.7c0,0,0,0,0,0c-0.5,0.7-1.2,1.3-2,1.7c-0.2,0.1-0.3,0.1-0.5,0.2
		c-0.2,0.1-0.5,0-0.7-0.2c-0.1-0.2,0-0.5,0.2-0.7c0,0,0.1,0,0.1,0c0.8-0.3,1.5-0.8,2-1.5C90.9,14.6,91.2,14.5,91.5,14.7z"/>
	<path class="st0" d="M92,10.4c0.4,1,0.6,2,0.4,3.1c0,0.2-0.1,0.3-0.3,0.4c-0.1,0-0.2,0-0.3,0c-0.3-0.1-0.4-0.3-0.4-0.6c0,0,0,0,0,0
		c0.2-0.8,0.1-1.7-0.3-2.4c-0.1-0.3,0-0.6,0.2-0.7c0.2-0.1,0.5,0,0.6,0.2C92,10.3,92,10.3,92,10.4L92,10.4z"/>
	<path class="st0" d="M87.5,2C81.7,2,77,6.7,77,12.5S81.7,23,87.5,23S98,18.3,98,12.5S93.3,2,87.5,2z M87.5,21
		c-4.7,0-8.5-3.8-8.5-8.5S82.8,4,87.5,4S96,7.8,96,12.5C96,17.2,92.2,21,87.5,21z"/>
	<path class="st0" d="M83.9,14.2c0.1,0.2,0,0.5-0.2,0.7c0,0,0,0,0,0c-0.2,0.1-0.5,0-0.6-0.2c0,0,0,0,0,0l0,0c-0.4-0.9-0.6-2-0.4-3
		c0.1-0.3,0.3-0.4,0.6-0.4c0.3,0.1,0.4,0.3,0.4,0.6c0,0,0,0,0,0C83.4,12.6,83.5,13.4,83.9,14.2z"/>
	<path class="st0" d="M84.2,10.2c0,0.1-0.1,0.1-0.2,0.2c-0.2,0.1-0.4,0.1-0.5-0.1c-0.2-0.2-0.3-0.5-0.1-0.7c0,0,0,0,0,0
		c0.6-0.9,1.5-1.5,2.5-1.9c0.3-0.1,0.5,0,0.7,0.2c0.1,0.3,0,0.5-0.2,0.7c0,0-0.1,0-0.1,0C85.4,9,84.7,9.5,84.2,10.2z"/>
	<path class="st0" d="M87.6,17c0,0.2-0.1,0.3-0.3,0.4c-0.1,0-0.2,0-0.2,0c-1.1-0.1-2-0.5-2.8-1.2c-0.2-0.2-0.2-0.5,0-0.7
		c0.2-0.2,0.5-0.2,0.7,0c0.6,0.6,1.4,0.9,2.3,1C87.4,16.5,87.6,16.7,87.6,17C87.6,17,87.6,17,87.6,17z"/>
	<path class="st0" d="M90.1,9.5c-0.6-0.6-1.4-0.9-2.3-1c-0.3,0-0.5-0.3-0.5-0.5c0-0.3,0.3-0.5,0.5-0.5c1,0.1,2,0.5,2.8,1.2
		c0.2,0.2,0.2,0.5,0,0.7c0,0,0,0,0,0c0,0.1-0.1,0.1-0.2,0.1C90.4,9.6,90.3,9.6,90.1,9.5z"/>
	<path class="st0" d="M91.5,14.7c0.2,0.2,0.3,0.5,0.1,0.7c0,0,0,0,0,0c-0.5,0.7-1.2,1.3-2,1.7c-0.2,0.1-0.3,0.1-0.5,0.2
		c-0.2,0.1-0.5,0-0.7-0.2c-0.1-0.2,0-0.5,0.2-0.7c0,0,0.1,0,0.1,0c0.8-0.3,1.5-0.8,2-1.5C90.9,14.6,91.2,14.5,91.5,14.7z"/>
	<path class="st0" d="M92.4,13.5c0,0.2-0.1,0.3-0.3,0.4c-0.1,0-0.2,0-0.3,0c-0.3-0.1-0.4-0.3-0.4-0.6c0,0,0,0,0,0
		c0.2-0.8,0.1-1.7-0.3-2.4c-0.1-0.3,0-0.6,0.2-0.7c0.2-0.1,0.5,0,0.6,0.2c0,0,0,0,0,0v0.1C92.5,11.4,92.6,12.4,92.4,13.5z"/>
	<path class="st0" d="M86.5,8.1c-0.1-0.3-0.4-0.4-0.6-0.3c-1,0.3-1.9,1-2.5,1.9c-0.2,0.2-0.1,0.5,0.1,0.7c0,0,0,0,0,0
		c0.1,0.1,0.3,0.1,0.5,0.1c0.1,0,0.2-0.1,0.2-0.2c0.5-0.7,1.2-1.2,2-1.5C86.5,8.6,86.6,8.3,86.5,8.1z"/>
	<path class="st0" d="M90.8,8.7C90,8,89,7.6,87.9,7.5c-0.3,0-0.5,0.2-0.5,0.5c0,0.3,0.2,0.5,0.5,0.5c0.8,0.1,1.6,0.4,2.3,1
		c0.1,0.1,0.4,0.2,0.5,0.1c0.1,0,0.1-0.1,0.2-0.1C91,9.3,91,9,90.8,8.7C90.8,8.7,90.8,8.7,90.8,8.7z"/>
	<path class="st0" d="M83.9,14.2c-0.3-0.8-0.4-1.6-0.3-2.4c0.1-0.3-0.1-0.5-0.4-0.6c0,0,0,0,0,0c-0.3,0-0.5,0.1-0.6,0.4
		c-0.2,1-0.1,2.1,0.4,3l0,0c0.1,0.2,0.4,0.3,0.6,0.2c0,0,0,0,0,0C83.8,14.7,83.9,14.4,83.9,14.2z"/>
	<path class="st0" d="M92,10.4L92,10.4c-0.1-0.3-0.4-0.4-0.6-0.3c0,0,0,0,0,0c-0.3,0.1-0.4,0.4-0.2,0.7c0.3,0.8,0.4,1.6,0.3,2.4
		c-0.1,0.3,0.1,0.5,0.4,0.6c0,0,0,0,0,0c0.1,0,0.2,0,0.3,0c0.1-0.1,0.2-0.2,0.3-0.4C92.6,12.5,92.5,11.4,92,10.4z"/>
	<path class="st0" d="M87.1,16.5c-0.8-0.1-1.6-0.4-2.3-1c-0.2-0.2-0.5-0.1-0.7,0.1c-0.2,0.2-0.1,0.5,0,0.7c0.8,0.7,1.8,1.1,2.8,1.2
		c0.1,0,0.2,0,0.2,0c0.2-0.1,0.3-0.2,0.3-0.4C87.6,16.8,87.4,16.5,87.1,16.5C87.1,16.5,87.1,16.5,87.1,16.5z"/>
	<path class="st0" d="M91.5,14.7c-0.2-0.2-0.5-0.1-0.7,0.1c-0.5,0.7-1.2,1.2-2,1.5c-0.3,0.1-0.4,0.3-0.4,0.6
		c0.1,0.3,0.3,0.4,0.6,0.4c0,0,0.1,0,0.1,0c0.2,0,0.3-0.1,0.5-0.2c0.8-0.4,1.5-0.9,2-1.7C91.7,15.2,91.7,14.9,91.5,14.7z"/>
</g>
<g id="FRM">
	<path class="st0" d="M115.8,20h-6.6c-0.4,0-0.8-0.3-0.9-0.8c-0.1-0.5,0.3-0.9,0.8-1c0.2,0,0.3-0.1,0.3-0.1c0.1-0.3,0.1-0.6,0-0.9
		c-0.8-0.7-1.3-1.6-1.7-2.6c-0.3-0.8-0.5-1.7-0.6-2.6c-0.1-0.6-0.1-1.1-0.1-1.7c0-0.9,0.3-1.7,0.7-2.5c0.5-1,1.4-1.8,2.4-2.3
		c0.8-0.4,1.7-0.6,2.6-0.6h0.4c1.1,0,4.1,0.1,5.4,1.4c0.2,0.2,0.6,0.6,0.4,1.1C118.6,8,118,8,117.5,8h-0.1c0.3,0.6,0.5,1.4,0.6,2.1
		v0.4l0,0c-0.1,1.4-0.4,2.8-0.8,4.2c-0.4,0.9-0.9,1.7-1.6,2.4c-0.1,0.3-0.1,0.6,0,0.9c0.3,0.1,0.6,0.3,0.9,0.5
		c0.1,0.2,0.2,0.4,0.2,0.7C116.6,19.7,116.2,20,115.8,20z M109.7,19h5.5c-0.2-0.1-0.3-0.2-0.4-0.4c-0.3-0.6-0.8-1.9-0.8-1.9v-0.1
		l0.8-0.1c0.7-0.6,1.2-1.4,1.5-2.2c0.5-1.2,0.7-2.5,0.7-3.8v-0.4c-0.1-0.8-0.3-1.5-0.7-2.2c-0.1-0.2-0.1-0.5,0-0.7
		c0.2-0.4,0.7-0.4,1.2-0.2h0.2c-1.1-1.2-4.9-1-4.9-1h-0.2c0,0-1.5-0.2-2.1,0.2c-0.8,0.4-1.5,1.1-2,1.9c-0.4,0.6-0.6,1.3-0.6,2.1
		c0,0.5,0,1.1,0.1,1.6c0.1,0.8,0.3,1.7,0.5,2.4c0.3,0.9,0.9,1.7,1.6,2.4l-0.1,0.1v0.1c0.4,0.6,0.3,1.3,0,1.8
		C109.9,18.8,109.8,18.9,109.7,19z"/>
	<path class="st0" d="M123,2.3v3.4c0,0.2-0.1,0.3-0.3,0.3l0,0h-0.4c-0.2,0-0.3-0.1-0.3-0.3c0,0,0,0,0,0V3h-2.7
		c-0.2,0-0.3-0.1-0.3-0.3c0,0,0,0,0,0V2.3c0-0.2,0.1-0.3,0.3-0.3l0,0h3.4C122.9,2,123,2.1,123,2.3C123,2.3,123,2.3,123,2.3z"/>
	<path class="st0" d="M122.7,23h-3.4c-0.2,0-0.3-0.1-0.3-0.3v0v-0.4c0-0.2,0.1-0.3,0.3-0.3l0,0h2.7v-2.7c0-0.2,0.1-0.3,0.3-0.3l0,0
		h0.4c0.2,0,0.3,0.1,0.3,0.3v0v3.4C123,22.9,122.9,23,122.7,23z"/>
	<path class="st0" d="M102,22.7v-3.4c0-0.2,0.1-0.3,0.3-0.3l0,0h0.4c0.2,0,0.3,0.1,0.3,0.3v0V22h2.7c0.2,0,0.3,0.1,0.3,0.3v0v0.4
		c0,0.2-0.1,0.3-0.3,0.3l0,0h-3.4C102.1,23,102,22.9,102,22.7C102,22.7,102,22.7,102,22.7z"/>
	<path class="st0" d="M102.3,2h3.4c0.2,0,0.3,0.1,0.3,0.3c0,0,0,0,0,0v0.4c0,0.2-0.1,0.3-0.3,0.3l0,0H103v2.7c0,0.2-0.1,0.3-0.3,0.3
		l0,0h-0.4c-0.2,0-0.3-0.1-0.3-0.3c0,0,0,0,0,0V2.3C102,2.1,102.1,2,102.3,2L102.3,2z"/>
</g>
<g id="Cars">
	<path class="st0" d="M144.5,5c0.2,0,0.5,0.1,0.6,0.4l2.2,4.8l1.4,1.2c0.1,0.1,0.3,0.3,0.3,0.5V17h-19v-5.2c0-0.2,0.1-0.4,0.3-0.5
		l1.6-1.2l1.7-4.7c0.1-0.3,0.3-0.4,0.6-0.4H145 M133,10h12.7l-1.6-4h-9.4l-1.3,4 M143,14h4v-2h-4V14 M132,14h4v-2h-4V14 M149,18v2.4
		c-0.1,0.4-0.4,0.6-0.8,0.6H146c-1,0-1-0.6-1-0.6V18H149 M134,18v2.4c0,0.4-0.3,0.6-0.6,0.6h-2.7c-0.4,0-0.6-0.3-0.6-0.6V18H134
		 M144,4h-9.8c-0.7,0-1.3,0.5-1.6,1.1L131,9.5l-1.4,1c-0.4,0.3-0.7,0.8-0.7,1.3v8.5c0,0.9,0.7,1.6,1.6,1.6h2.7
		c0.9,0,1.6-0.7,1.6-1.6V18h9v2.4c0.1,1,0.9,1.7,1.9,1.7c0,0,0.1,0,0.1,0h2c0.9,0,1.7-0.5,1.9-1.3l0.1-0.1v-9
		c-0.1-0.4-0.3-0.8-0.8-1l-1.3-1l-2.4-4.6l0,0C145.3,4.4,144.7,4,144,4L144,4z M135.5,7h8l0.8,2h-9.4L135.5,7L135.5,7z"/>
</g>
<g id="Users">
	<path class="st0" d="M193.5,23h-11c-1.4,0-2.5-1.1-2.5-2.5v-0.6c0-3.2,2.6-5.9,5.9-5.9h4.3c3.2,0,5.9,2.6,5.9,5.9v0.6
		C196,21.9,194.9,23,193.5,23z M185.9,15c-2.7,0-4.9,2.2-4.9,4.9v0.6c0,0.8,0.7,1.5,1.5,1.5h11c0.8,0,1.5-0.7,1.5-1.5v-0.6
		c0-2.7-2.2-4.9-4.9-4.9H185.9z"/>
	<path class="st0" d="M187.6,13c-2.1-0.3-3.7-2.1-3.6-4.2V6c0-2.2,1.8-4,4-4l0,0c2.2,0,4,1.8,4,4v3c0,2.2-1.8,4-4,4
		C187.9,13,187.8,13,187.6,13z M188,3c-1.7,0-3,1.3-3,3v2.9c0,1.5,1,2.8,2.4,3.1c1.6,0.3,3.2-0.7,3.5-2.4c0-0.2,0.1-0.4,0.1-0.6V6
		C191,4.3,189.7,3,188,3z"/>
</g>
<g id="Reports">
	<path class="st0" d="M220,24h-15c-0.6,0-1-0.4-1-1V2c0-0.6,0.4-1,1-1h15c0.6,0,1,0.4,1,1v21C221,23.6,220.6,24,220,24z M206,23h13
		c0.6,0,1-0.4,1-1V3c0-0.6-0.4-1-1-1h-13c-0.6,0-1,0.4-1,1v19C205,22.6,205.4,23,206,23z"/>
	<rect x="207" y="5" class="st0" width="11" height="1"/>
	<rect x="207" y="8" class="st0" width="11" height="1"/>
	<rect x="207" y="11" class="st0" width="11" height="1"/>
	<rect x="207" y="14" class="st0" width="11" height="1"/>
	<rect x="207" y="17" class="st0" width="6" height="1"/>
</g>
<g id="Logout">
	<path class="st0" d="M266,3.3v2.2c4.1,2.2,5.7,7.4,3.5,11.5s-7.4,5.7-11.5,3.5c-4.1-2.2-5.7-7.4-3.5-11.5c0.8-1.5,2-2.7,3.5-3.5
		V3.3c-5.4,2.2-7.9,8.3-5.7,13.7c2.2,5.4,8.3,7.9,13.7,5.7s7.9-8.3,5.7-13.7C270.6,6.4,268.6,4.4,266,3.3z"/>
	<path class="st0" d="M261.2,1h1.5c0.1,0,0.2,0.1,0.2,0.2v9.5c0,0.1-0.1,0.2-0.2,0.2h-1.5c-0.1,0-0.2-0.1-0.2-0.2V1.2
		C261,1.1,261.1,1,261.2,1z"/>
</g>
<path id="CCTV" class="st0" d="M173.3,7.1L173,7c0-0.6-0.4-1.2-1-1.3L160.1,3c-0.7-0.2-1.4,0.3-1.6,1l-1.2,5.6
	c-0.2,0.7,0.3,1.4,1,1.6l5.7,1.3V17h-3.1c-0.4-1.2-1.5-2-2.8-2h-2.2c-0.5,0-0.9,0.4-0.9,0.8c0,0,0,0,0,0v5.3c0,0.5,0.4,0.9,0.8,0.9
	c0,0,0,0,0,0h2.2c1.3,0,2.4-0.8,2.8-2h5.1c0.6,0,1-0.4,1-1v-5.8l3.1,0.7c0.1,0,0.2,0,0.3,0c0.3,0,0.5-0.1,0.7-0.2
	c0.2-0.1,0.4-0.3,0.5-0.6l0.3,0.1c0.2,0,0.4,0.1,0.6,0.1c1.3,0,2.5-0.9,2.8-2.2l0.1-0.5C175.8,9,174.8,7.4,173.3,7.1z M158,21h-2v-5
	h2.1c0.9,0,1.7,0.7,1.9,1.6c0,0.1,0,0.2,0,0.3v1.2c0,0.1,0,0.2,0,0.3v0.1C159.7,20.4,158.9,21,158,21z M166,19h-5v-1h3
	c0.6,0,1-0.4,1-1v-3.9l1,0.2V19z M170.7,12.7L170.7,12.7c-0.1,0.2-0.2,0.3-0.4,0.2l-11.8-2.6c-0.1,0-0.2-0.1-0.2-0.2
	c0-0.1,0-0.2,0-0.3l1.2-5.6c0-0.2,0.2-0.3,0.4-0.3h0.1l11.8,2.6c0.1,0,0.2,0.1,0.2,0.2c0,0.1,0.1,0.2,0,0.3c0,0,0,0.1,0,0.1
	L170.7,12.7z M174.5,10.3l-0.1,0.5c-0.2,1-1.2,1.7-2.3,1.4l-0.3-0.1l0.9-4.2h0.2C174,8.2,174.7,9.2,174.5,10.3
	C174.5,10.3,174.5,10.3,174.5,10.3L174.5,10.3z"/>
<g id="Sites">
	<path class="st0" d="M37.5,5.1c-2,0-3.7,1.7-3.7,3.7s1.7,3.7,3.7,3.7c2,0,3.7-1.7,3.7-3.7C41.2,6.7,39.5,5.1,37.5,5.1z M37.5,6.5
		c-1.2,0-2.2,1-2.2,2.3c0,1.2,1,2.2,2.3,2.2c1.2,0,2.2-1,2.2-2.3C39.7,7.5,38.7,6.5,37.5,6.5z"/>
	<path class="st0" d="M46.5,22l-2.3-5.3c-0.2-0.4-0.6-0.7-1-0.7h-1.1c1.6-2.7,3-5.5,3-7.4c0-4.2-3.4-7.6-7.7-7.6
		c-4.2,0-7.6,3.4-7.6,7.6c0,1.8,1.4,4.7,3,7.4h-1c-0.4,0-0.8,0.3-1,0.7l-2.5,5.8c-0.2,0.6,0,1.2,0.6,1.4C29,24,29.2,24,29.3,24h16.2
		c0.6,0,1.1-0.5,1.1-1.1c0-0.2-0.1-0.9-0.1-0.9L46.5,22z M30.9,8.6c0-3.7,3-6.7,6.6-6.7c3.7,0,6.7,3,6.7,6.7c0,1.7-1.5,4.7-3.2,7.4
		c-0.2,0.3-0.4,0.7-0.6,1c-1.1,1.7-2.1,3.1-2.6,3.9c-0.1,0.2-0.3,0.2-0.4,0c-0.6-0.8-1.6-2.2-2.6-3.9c-0.2-0.3-0.4-0.7-0.6-1
		C32.4,13.4,30.9,10.4,30.9,8.6z M45.6,23H29.4l-0.1-0.1l2.5-5.8c0,0,0.1-0.1,0.1-0.1h1.6c1.1,1.8,2.3,3.4,3,4.4
		c0.4,0.6,1.2,0.7,1.8,0.3c0.1-0.1,0.2-0.2,0.3-0.3c0.8-1,1.9-2.7,3-4.5h1.6c0,0,0.1,0,0.1,0.1L45.6,23C45.6,23,45.6,23,45.6,23z"/>
</g>
<g id="Settings">
	<path class="st0" d="M238,17.6c2.9,0,5.3-2.3,5.4-5.2c0-2.9-2.3-5.3-5.2-5.4c-2.9,0-5.3,2.3-5.4,5.2c0,0,0,0.1,0,0.1
		C232.8,15.2,235.1,17.6,238,17.6z M238.1,8.2c2.6,0,4.6,2.4,4,5c-0.3,1.5-1.5,2.7-3,3c-2.7,0.6-5-1.4-5-4c0,0,0,0,0,0
		C234,10.1,235.8,8.2,238.1,8.2z"/>
	<path class="st0" d="M227.7,16.2l1.5,2.6c0.4,0.7,1.2,0.9,1.9,0.6l1.1-0.5c0.8,0.7,1.7,1.2,2.7,1.5l0.1,1.2
		c0.1,0.8,0.7,1.3,1.4,1.4h3c0.8,0,1.4-0.6,1.4-1.4l0.1-1.2c1-0.3,1.9-0.9,2.7-1.5l1.1,0.5c0.7,0.3,1.5,0.1,1.9-0.6l1.5-2.6
		c0.4-0.7,0.2-1.6-0.4-2l-1-0.7c0-0.5,0.1-1,0.1-1.6c0-0.5-0.1-1-0.1-1.5l1-0.7c0.6-0.4,0.8-1.3,0.4-1.9l-1.5-2.6
		c-0.4-0.7-1.2-0.9-1.9-0.6l-1.1,0.5c-0.8-0.7-1.7-1.2-2.7-1.5l0-1.2c-0.1-0.8-0.7-1.4-1.5-1.3h-3c-0.8,0-1.4,0.6-1.5,1.3l0,1.2
		c-1,0.3-1.9,0.9-2.7,1.5l-1.1-0.5c-0.7-0.3-1.5-0.1-1.9,0.6l-1.5,2.6c-0.4,0.7-0.2,1.6,0.4,2l1,0.7c-0.1,0.5-0.1,1-0.1,1.6
		c0,0.5,0,1,0.1,1.5l-1,0.7C227.6,14.7,227.4,15.5,227.7,16.2z M229.2,14.8l1.4-1l0-0.3c-0.2-1.1-0.2-2.1,0-3.2l0-0.3l-1.4-1
		c-0.3-0.2-0.4-0.6-0.2-0.9l1.4-2.5c0.2-0.3,0.6-0.4,0.9-0.3l1.5,0.7l0.2-0.2c0.8-0.7,1.7-1.3,2.7-1.6l0.2-0.1l0.1-1.7
		c0-0.3,0.3-0.6,0.7-0.6h2.9c0.4,0,0.7,0.3,0.7,0.6l0.2,1.7l0.2,0.1c1,0.3,2,0.9,2.7,1.6l0.2,0.2l1.5-0.7c0.3-0.1,0.7,0,0.9,0.3
		l1.5,2.5c0.2,0.3,0.1,0.7-0.2,0.9l-1.4,1v0.3c0.2,1.1,0.2,2.1,0,3.2v0.3l1.4,1c0.3,0.2,0.4,0.6,0.2,0.9l-1.5,2.5
		c-0.2,0.3-0.5,0.4-0.9,0.3l-1.5-0.7l-0.2,0.2c-0.8,0.7-1.7,1.3-2.7,1.6l-0.2,0.1l-0.2,1.7c0,0.3-0.3,0.6-0.7,0.6h-2.9
		c-0.4,0-0.7-0.3-0.7-0.6l-0.2-1.7l-0.2-0.1c-1-0.3-2-0.9-2.7-1.6l-0.2-0.2l-1.5,0.7c-0.3,0.1-0.7,0-0.9-0.3l-1.5-2.5
		C228.8,15.4,228.9,15,229.2,14.8C229.2,14.8,229.2,14.8,229.2,14.8z"/>
</g>
<path class="st0" d="M296,12.2v1.5c0,0.1-0.1,0.2-0.2,0.2H288v7.8c0,0.1-0.1,0.2-0.2,0.2h-1.5c-0.1,0-0.2-0.1-0.2-0.2V14h-7.8
	c-0.1,0-0.2-0.1-0.2-0.2v-1.5c0-0.1,0.1-0.2,0.2-0.2h7.8V4.2c0-0.1,0.1-0.2,0.2-0.2h1.5c0.1,0,0.2,0.1,0.2,0.2V12h7.8
	C295.9,12,296,12.1,296,12.2z"/>
<path class="st0" d="M315,1c-4.6,0-8.4,3.7-8.4,8.4c0,2.1,0.8,4.1,2.2,5.6l-7.1,7.1c-0.1,0.1-0.1,0.2,0,0.3l1,1
	c0.1,0.1,0.2,0.1,0.3,0l7.2-7.2c3.8,2.6,9,1.7,11.6-2.1s1.7-9-2.1-11.6C318.4,1.5,316.7,1,315,1z M315,15.4c-3.3,0-6-2.7-6-6.1
	c0-3.2,2.7-5.9,5.9-5.9c3.4,0,6.1,2.7,6.1,6c0,0,0,0,0,0C321,12.7,318.3,15.3,315,15.4z"/>
<path class="st0" d="M351.9,23h-19.8c-0.2,0-0.4-0.1-0.5-0.3c-0.1-0.2-0.1-0.4,0-0.6l9.6-19.8c0.1-0.2,0.3-0.3,0.5-0.3
	c0.2,0,0.4,0.1,0.5,0.3l10.2,19.8c0.1,0.2,0.1,0.4,0,0.6C352.3,22.9,352.1,23,351.9,23z M333,22H351l-9.2-17.9L333,22z"/>
<g>
	<path class="st0" d="M340.8,18.7c0-0.6,0.4-1,0.9-1c0.6,0,0.9,0.4,0.9,1c0,0.5-0.4,1-0.9,1C341.1,19.6,340.8,19.2,340.8,18.7z
		 M341.1,17l-0.2-8h1.6l-0.2,8H341.1z"/>
</g>
</svg>
