<svg viewBox="0 0 325 25" xmlns="http://www.w3.org/2000/svg" fill-rule="evenodd" clip-rule="evenodd" stroke-linecap="round" stroke-linejoin="round" stroke-miterlimit="1.5"><path d="M3.69 13h3.62l.031-.001c.351 0 .643.28.659.631v9.74a.666.666 0 0 1-.659.631L7.31 24H3.69l-.031.001A.666.666 0 0 1 3 23.37v-9.74a.666.666 0 0 1 .659-.631L3.69 13zm14-7h3.62a.666.666 0 0 1 .69.62v16.76a.666.666 0 0 1-.69.62h-3.62a.666.666 0 0 1-.69-.62V6.62a.666.666 0 0 1 .69-.62zm-7-5h3.62l.031-.001c.351 0 .643.28.659.631v21.74a.666.666 0 0 1-.659.631L14.31 24h-3.62l-.031.001A.666.666 0 0 1 10 23.37V1.63a.666.666 0 0 1 .659-.631L10.69 1z" fill="#fff"/><g fill="#fff"><path d="M70.76 24H69V2.58l.001-.03A.555.555 0 0 0 68.46 2H56.58a.586.586 0 0 0-.58.58V24h-1.47c-.36-.12-.58.18-.58.48v.003a.524.524 0 0 0 .58.517h16.23l.06.003c.285 0 .52-.234.52-.52v-.003c0-.38-.29-.6-.58-.48zM68 24H57V3h11v21z" fill-rule="nonzero"/><path d="M58 4v19h9V4h-9zm8 9h-2v-2h2v2z"/></g><g fill="#fff" fill-rule="nonzero"><path d="M83.86 14.17a.5.5 0 0 1-.24.67.47.47 0 0 1-.65-.23 5.006 5.006 0 0 1-.36-3 .514.514 0 0 1 .59-.4.503.503 0 0 1 .39.59 4 4 0 0 0 .27 2.37zm.36-3.96a.479.479 0 0 1-.2.17.502.502 0 0 1-.5-.05.49.49 0 0 1-.12-.69 4.996 4.996 0 0 1 2.46-1.86.504.504 0 0 1 .706.456.504.504 0 0 1-.376.484c-.796.279-1.485.8-1.97 1.49zM87.59 17a.492.492 0 0 1-.29.41.504.504 0 0 1-.25 0 5.001 5.001 0 0 1-2.84-1.21.504.504 0 0 1 .346-.861.5.5 0 0 1 .314.111 4.06 4.06 0 0 0 2.27 1 .504.504 0 0 1 .45.55zm2.52-7.53a4 4 0 0 0-2.28-1 .506.506 0 0 1-.457-.5.507.507 0 0 1 .505-.502l.042.002a5.045 5.045 0 0 1 2.84 1.19.5.5 0 0 1 0 .71.35.35 0 0 1-.17.12.49.49 0 0 1-.48-.02zm1.35 5.22a.503.503 0 0 1 .12.7 5.001 5.001 0 0 1-2 1.66c-.153.07-.31.13-.47.18a.505.505 0 0 1-.716-.451c0-.235.166-.44.396-.489a4.154 4.154 0 0 0 2-1.48.504.504 0 0 1 .67-.12zm.54-4.27a4.88 4.88 0 0 1 .36 3.06.508.508 0 0 1-.28.36.545.545 0 0 1-.31 0 .503.503 0 0 1-.39-.59 4 4 0 0 0-.28-2.45.511.511 0 0 1 .452-.736.47.47 0 0 1 .428.276l.02.08z"/><path d="M87.5 2C81.74 2 77 6.74 77 12.5S81.74 23 87.5 23 98 18.26 98 12.5 93.26 2 87.5 2zm0 19c-4.663 0-8.5-3.837-8.5-8.5S82.837 4 87.5 4 96 7.837 96 12.5c-.005 4.661-3.839 8.495-8.5 8.5z"/><path d="M83.86 14.17a.5.5 0 0 1-.24.67.47.47 0 0 1-.65-.23 5.006 5.006 0 0 1-.36-3 .514.514 0 0 1 .59-.4.503.503 0 0 1 .39.59 4 4 0 0 0 .27 2.37zm.36-3.96a.479.479 0 0 1-.2.17.502.502 0 0 1-.5-.05.49.49 0 0 1-.12-.69 4.996 4.996 0 0 1 2.46-1.86.504.504 0 0 1 .706.456.504.504 0 0 1-.376.484c-.796.279-1.485.8-1.97 1.49zM87.59 17a.492.492 0 0 1-.29.41.504.504 0 0 1-.25 0 5.001 5.001 0 0 1-2.84-1.21.504.504 0 0 1 .346-.861.5.5 0 0 1 .314.111 4.06 4.06 0 0 0 2.27 1 .504.504 0 0 1 .45.55zm2.52-7.53a4 4 0 0 0-2.28-1 .506.506 0 0 1-.457-.5.507.507 0 0 1 .505-.502l.042.002a5.045 5.045 0 0 1 2.84 1.19.5.5 0 0 1 0 .71.35.35 0 0 1-.17.12.49.49 0 0 1-.48-.02zm1.35 5.22a.503.503 0 0 1 .12.7 5.001 5.001 0 0 1-2 1.66c-.153.07-.31.13-.47.18a.505.505 0 0 1-.716-.451c0-.235.166-.44.396-.489a4.154 4.154 0 0 0 2-1.48.504.504 0 0 1 .67-.12zm.94-1.21a.508.508 0 0 1-.28.36.545.545 0 0 1-.31 0 .503.503 0 0 1-.39-.59 4 4 0 0 0-.28-2.45.511.511 0 0 1 .452-.736.47.47 0 0 1 .428.276v.05c.461.961.594 2.046.38 3.09z"/><path d="M86.5 8.08a.504.504 0 0 0-.64-.3 4.996 4.996 0 0 0-2.46 1.86.49.49 0 0 0 .12.69.502.502 0 0 0 .5.05.479.479 0 0 0 .2-.17 4.046 4.046 0 0 1 2-1.49.514.514 0 0 0 .28-.64zm4.26.63a5.045 5.045 0 0 0-2.84-1.19l-.045-.002a.508.508 0 0 0-.502.502c0 .258.2.477.457.5a4 4 0 0 1 2.28 1 .491.491 0 0 0 .53.07.35.35 0 0 0 .17-.12.5.5 0 0 0-.05-.76zm-6.9 5.46a3.999 3.999 0 0 1-.29-2.43.503.503 0 0 0-.39-.59.514.514 0 0 0-.59.4 5.006 5.006 0 0 0 .36 3 .47.47 0 0 0 .65.23.503.503 0 0 0 .26-.61zM92 10.42v-.05a.47.47 0 0 0-.65-.22.514.514 0 0 0-.23.68 4 4 0 0 1 .28 2.45.503.503 0 0 0 .39.59c.101.03.209.03.31 0a.508.508 0 0 0 .28-.36 4.878 4.878 0 0 0-.38-3.09zm-4.86 6.06a4.06 4.06 0 0 1-2.27-1 .5.5 0 0 0-.66.75 5.001 5.001 0 0 0 2.84 1.21.504.504 0 0 0 .25 0 .492.492 0 0 0 .293-.462.504.504 0 0 0-.453-.498zm4.32-1.79a.504.504 0 0 0-.69.12 4.154 4.154 0 0 1-2 1.48.504.504 0 0 0-.396.489.506.506 0 0 0 .716.451c.16-.05.317-.11.47-.18a5.001 5.001 0 0 0 2-1.66.503.503 0 0 0-.1-.7z"/></g><path d="M115.8 20h-6.65a.906.906 0 0 1-.88-.76.898.898 0 0 1 .76-1c.23 0 .28-.11.3-.15a1.408 1.408 0 0 0 0-.88 6.928 6.928 0 0 1-1.73-2.6 10.8 10.8 0 0 1-.58-2.64 13.76 13.76 0 0 1-.08-1.71c.026-.879.27-1.738.71-2.5a5.665 5.665 0 0 1 2.4-2.3 5.233 5.233 0 0 1 2.57-.57h.21c1.15 0 4.21.09 5.56 1.47.17.17.61.63.41 1.12-.2.49-.8.52-1.32.52h-.07c.351.672.552 1.413.59 2.17v.29a20.996 20.996 0 0 1-.76 4.22 7.471 7.471 0 0 1-1.66 2.46 1.522 1.522 0 0 0 0 .93c.319.126.621.29.9.49a.85.85 0 0 1 .17.67.905.905 0 0 1-.85.77zm-6.15-1h5.53a1.364 1.364 0 0 1-.4-.39 2.622 2.622 0 0 1-.13-1.88v-.13l.1-.09a6.21 6.21 0 0 0 1.53-2.2c.475-1.227.71-2.534.69-3.85v-.36a4.509 4.509 0 0 0-.7-2.18.659.659 0 0 1 0-.68c.21-.38.69-.39 1.2-.4h.22c-1.12-1.06-4-1.12-4.89-1.14h-.23a4.437 4.437 0 0 0-2.11.47 4.68 4.68 0 0 0-2 1.93 4.259 4.259 0 0 0-.59 2.06c-.012.538.012 1.075.07 1.61.074.833.256 1.653.54 2.44a6.167 6.167 0 0 0 1.61 2.35l.1.1v.14a2.541 2.541 0 0 1-.15 1.82 1.274 1.274 0 0 1-.39.38zM123 2.29v3.42c0 .159-.131.29-.29.29h-.42a.293.293 0 0 1-.29-.29V3h-2.71a.293.293 0 0 1-.29-.29v-.42c0-.159.131-.29.29-.29h3.42c.159 0 .29.131.29.29zM122.71 23h-3.42a.293.293 0 0 1-.29-.29v-.42c0-.159.131-.29.29-.29H122v-2.71c0-.159.131-.29.29-.29h.42c.159 0 .29.131.29.29v3.42c0 .159-.131.29-.29.29zM102 22.71v-3.42c0-.159.131-.29.29-.29h.42c.159 0 .29.131.29.29V22h2.71c.159 0 .29.131.29.29v.42c0 .159-.131.29-.29.29h-3.42a.293.293 0 0 1-.29-.29zM102.29 2h3.42c.159 0 .29.131.29.29v.42c0 .159-.131.29-.29.29H103v2.71c0 .159-.131.29-.29.29h-.42a.293.293 0 0 1-.29-.29V2.29c0-.159.131-.29.29-.29zM142.54 5a.65.65 0 0 1 .57.36l2.2 4.8 1.35 1.16c.139.148.254.316.34.5V17h-19v-5.19a.63.63 0 0 1 .26-.51l1.58-1.17 1.74-4.7a.622.622 0 0 1 .6-.43H143m-12 5h12.71l-1.6-4h-9.37l-1.3 4m9.56 4h4v-2h-4v2m-11 0h4v-2h-4v2m17 4v2.35a.844.844 0 0 1-.76.65H144c-1 0-1-.65-1-.65V18h4m-15 0v2.36c0 .351-.289.64-.64.64h-2.72a.647.647 0 0 1-.64-.64V18h4m10.54-14h-10.36a1.618 1.618 0 0 0-1.55 1.13L129 9.5l-1.35 1a1.63 1.63 0 0 0-.66 1.31v8.55c.005.901.749 1.64 1.65 1.64h2.72a1.665 1.665 0 0 0 1.64-1.64V18h9v2.35a1.804 1.804 0 0 0 2 1.65h2.22a1.828 1.828 0 0 0 1.78-1.34l.05-.15v-9a1.282 1.282 0 0 0-.69-1l-1.18-1L144 4.94a1.644 1.644 0 0 0-1.46-.9V4zm-9.07 3h8l.8 2h-9.41l.65-2h-.04zM193.5 23h-11a2.524 2.524 0 0 1-2.5-2.5v-.64c.005-3.213 2.647-5.855 5.86-5.86h4.28c3.213.005 5.855 2.647 5.86 5.86v.64c0 1.371-1.129 2.5-2.5 2.5zm-7.64-8c-2.664.005-4.855 2.196-4.86 4.86v.64c0 .823.677 1.5 1.5 1.5h11c.823 0 1.5-.677 1.5-1.5v-.64c-.005-2.664-2.196-4.855-4.86-4.86h-4.28zm1.77-2A4.16 4.16 0 0 1 184 8.79V6c0-2.194 1.806-4 4-4s4 1.806 4 4v3.017c0 2.194-1.806 4-4 4-.124 0-.247-.006-.37-.017zM188 3c-1.646 0-3 1.354-3 3v2.85a3.13 3.13 0 0 0 2.43 3.1c.188.036.379.055.57.055 1.646 0 3-1.355 3-3V6c0-1.646-1.354-3-3-3z" fill="#fff" fill-rule="nonzero"/><g fill="#fff"><path d="M220 24h-15c-.549 0-1-.451-1-1V2c0-.549.451-1 1-1h15c.549 0 1 .451 1 1v21c0 .549-.451 1-1 1zm-14-1h13c.549 0 1-.451 1-1V3c0-.549-.451-1-1-1h-13c-.549 0-1 .451-1 1v19c0 .549.451 1 1 1z" fill-rule="nonzero"/><path d="M207 5h11v1h-11V5zm0 3h11v1h-11V8zm0 3h11v1h-11v-1zm0 3h11v1h-11v-1zm0 3h6v1h-6v-1z"/></g><g fill="#fff"><path d="M266 3.3v2.2a8.52 8.52 0 0 1 4.5 7.5c0 4.663-3.837 8.5-8.5 8.5s-8.5-3.837-8.5-8.5a8.52 8.52 0 0 1 4.5-7.5V3.3a10.535 10.535 0 0 0-6.5 9.708c0 5.76 4.74 10.5 10.5 10.5s10.5-4.74 10.5-10.5c0-4.245-2.575-8.091-6.5-9.708z" fill-rule="nonzero"/><path d="M263 1.25a.251.251 0 0 0-.25-.25h-1.5a.251.251 0 0 0-.25.25v9.5c0 .138.112.25.25.25h1.5c.137 0 .25-.113.25-.25v-9.5z"/></g><path d="M171.26 7.06L171 7a1.366 1.366 0 0 0-1-1.32L158.13 3a1.372 1.372 0 0 0-1.62 1l-1.24 5.57a1.362 1.362 0 0 0 1 1.61l5.73 1.34V17h-3.15c-.385-1.189-1.5-2-2.75-2h-2.25a.858.858 0 0 0-.85.85v5.3c0 .466.384.85.85.85h2.25c1.252 0 2.37-.81 2.76-2H164c.549 0 1-.451 1-1v-5.81l3.07.69c.096.01.194.01.29 0 .258.001.512-.072.73-.21.217-.14.39-.337.5-.57l.29.07a2.93 2.93 0 0 0 3.47-2.17l.11-.47a2.936 2.936 0 0 0-2.2-3.47zM156 21h-2v-5h2.1c.938 0 1.746.685 1.9 1.61.012.096.012.194 0 .29v1.2c.012.096.012.194 0 .29v.12a2.189 2.189 0 0 1-2 1.49zm8-2h-5v-1h3c.549 0 1-.451 1-1v-3.87l1 .23V19zm4.71-6.37a.344.344 0 0 1-.41.23l-11.77-2.64a.36.36 0 0 1-.22-.16.319.319 0 0 1 0-.27l1.24-5.56a.352.352 0 0 1 .35-.27h.08l11.76 2.63a.36.36 0 0 1 .22.16c.046.075.06.165.04.25a.215.215 0 0 1 0 .08l-1.29 5.55zm3.77-2.32l-.11.47a1.928 1.928 0 0 1-2.27 1.44l-.26-.06.93-4.16h.23a1.923 1.923 0 0 1 1.48 2.31z" fill="#fff" fill-rule="nonzero"/><g fill="#fff" fill-rule="nonzero"><path d="M37.49 5.06a3.724 3.724 0 0 0-3.67 3.69 3.725 3.725 0 0 0 3.69 3.69 3.725 3.725 0 0 0 3.69-3.69v-.01a3.754 3.754 0 0 0-3.71-3.68zm0 6.19a2.503 2.503 0 0 1-2.45-2.48c0-1.36 1.12-2.48 2.48-2.48 1.36 0 2.48 1.12 2.48 2.48v.01a2.494 2.494 0 0 1-2.47 2.47h-.04z"/><path d="M46.6 22.47l-2.48-5.8a1.103 1.103 0 0 0-1-.67h-1c1.59-2.66 3-5.52 3-7.35 0-4.197-3.453-7.65-7.65-7.65-4.197 0-7.65 3.453-7.65 7.65 0 1.83 1.4 4.69 3 7.35h-1c-.436.005-.83.269-1 .67l-2.48 5.8a1.093 1.093 0 0 0-.093.44c0 .598.492 1.09 1.09 1.09h16.256c.598 0 1.09-.492 1.09-1.09 0-.152-.032-.301-.093-.44h.01zM30.85 8.65C30.85 5.002 33.852 2 37.5 2c3.648 0 6.65 3.002 6.65 6.65 0 1.74-1.54 4.71-3.16 7.35-.21.34-.42.68-.63 1-1.06 1.67-2.08 3.1-2.64 3.87-.14.19-.3.19-.44 0-.56-.77-1.58-2.2-2.64-3.87-.21-.32-.42-.66-.63-1-1.62-2.64-3.16-5.61-3.16-7.35zM45.59 23H29.41l-.09-.14 2.48-5.8a.113.113 0 0 1 .09-.06h1.57c1.12 1.79 2.26 3.41 3 4.45a1.27 1.27 0 0 0 2.06 0c.75-1 1.89-2.66 3-4.45h1.57a.113.113 0 0 1 .09.06L45.67 23a.081.081 0 0 1-.08 0z"/></g><g fill="#fff" fill-rule="nonzero"><path d="M227.74 16.21l1.5 2.59a1.532 1.532 0 0 0 1.93.61l1.14-.53a8.626 8.626 0 0 0 2.69 1.53l.11 1.24c.073.748.699 1.33 1.45 1.35h3a1.482 1.482 0 0 0 1.44-1.35l.11-1.24a8.624 8.624 0 0 0 2.66-1.53l1.14.53a1.532 1.532 0 0 0 1.93-.61l1.5-2.59a1.472 1.472 0 0 0-.42-2l-1-.71c0-.53.08-1 .08-1.56a10.065 10.065 0 0 0-.14-1.54l1-.71c.625-.437.81-1.294.42-1.95l-1.5-2.59a1.532 1.532 0 0 0-1.93-.61l-1.14.53a8.55 8.55 0 0 0-2.67-1.53L241 2.35A1.501 1.501 0 0 0 239.49 1h-3c-.764 0-1.41.589-1.48 1.35L235 3.59a8.55 8.55 0 0 0-2.67 1.53l-1.14-.53a1.522 1.522 0 0 0-1.92.61l-1.48 2.56a1.482 1.482 0 0 0 .42 2l1 .71a7.557 7.557 0 0 0-.13 1.56c.004.513.047 1.024.13 1.53l-1 .71a1.5 1.5 0 0 0-.47 1.94zm1.12-1.37l1.39-1-.05-.26a8.608 8.608 0 0 1 0-3.2l.05-.26-1.38-1a.696.696 0 0 1-.2-.93l1.45-2.5a.685.685 0 0 1 .88-.29l1.55.73.18-.19a7.51 7.51 0 0 1 2.75-1.59l.24-.08.15-1.7a.685.685 0 0 1 .67-.62h2.91a.656.656 0 0 1 .67.62l.16 1.7.23.08A7.541 7.541 0 0 1 243.27 6l.18.19 1.55-.74a.676.676 0 0 1 .87.29l1.47 2.52a.666.666 0 0 1-.21.9l-1.39 1v.26a8.092 8.092 0 0 1 0 3.2v.26l1.39 1c.29.215.376.615.2.93l-1.46 2.5a.676.676 0 0 1-.87.29l-1.55-.73-.18.19a7.55 7.55 0 0 1-2.76 1.59l-.23.08-.16 1.7a.675.675 0 0 1-.67.62h-2.88a.656.656 0 0 1-.67-.62l-.16-1.7-.23-.08a7.541 7.541 0 0 1-2.76-1.65l-.18-.19-1.54.73a.685.685 0 0 1-.88-.29l-1.47-2.52a.628.628 0 0 1 .18-.89z"/><path d="M237.921 16.999L238 17c2.743 0 5-2.257 5-5s-2.257-5-5-5-5 2.257-5 5v.009c0 2.712 2.21 4.953 4.921 4.99zM238 8c.003 0-.003 0 0 0 2.322 0 4 1.678 4 4s-1.678 4.241-4 4.241-4-1.91-4-4.232c.011-2.314 1.686-3.993 4-4.009z"/></g><circle cx="310.992" cy="10.992" r="6.008" fill="none" stroke="#00c0ff" stroke-width="2"/><path d="M315.5 15.5l4.484 4.484" fill="none" stroke="#00c0ff" stroke-width="2"/><path d="M296 12.484h-17M287.5 20.984v-17" fill="none" stroke="#00c0ff" stroke-width="3" stroke-linecap="butt"/></svg>