<svg viewBox="0 0 250 25" xmlns="http://www.w3.org/2000/svg" fill-rule="evenodd" clip-rule="evenodd" stroke-linejoin="round" stroke-miterlimit="1.414"><g fill="#fff"><path d="M3.69 13h3.62l.031-.001c.351 0 .643.28.659.631v9.74a.663.663 0 0 1-.659.631L7.31 24H3.69l-.031.001A.663.663 0 0 1 3 23.37v-9.74a.663.663 0 0 1 .659-.631L3.69 13zM17.69 6h3.62a.663.663 0 0 1 .69.62v16.76a.663.663 0 0 1-.69.62h-3.62a.663.663 0 0 1-.69-.62V6.62a.663.663 0 0 1 .69-.62zM10.69 1h3.62l.031-.001c.351 0 .643.28.659.631v21.74a.663.663 0 0 1-.659.631L14.31 24h-3.62l-.031.001A.663.663 0 0 1 10 23.37V1.63a.663.663 0 0 1 .659-.631L10.69 1z"/></g><g fill="#fff"><path d="M70.76 24H69V2.58l.001-.03A.553.553 0 0 0 68.46 2H56.58a.583.583 0 0 0-.58.58V24h-1.47c-.36-.12-.58.18-.58.48v.003a.522.522 0 0 0 .58.517h16.23l.06.003c.285 0 .52-.234.52-.52v-.003c0-.38-.29-.6-.58-.48zM68 24H57V3h11v21z" fill-rule="nonzero"/><path d="M58 4v19h9V4h-9zm8 9h-2v-2h2v2z"/></g><g fill="#fff" fill-rule="nonzero"><path d="M83.86 14.17a.5.5 0 0 1-.24.67.472.472 0 0 1-.65-.23 5.006 5.006 0 0 1-.36-3 .512.512 0 0 1 .59-.4.501.501 0 0 1 .39.59 4 4 0 0 0 .27 2.37zM84.22 10.21a.472.472 0 0 1-.2.17.502.502 0 0 1-.5-.05.49.49 0 0 1-.12-.69 4.996 4.996 0 0 1 2.46-1.86.502.502 0 0 1 .706.456.502.502 0 0 1-.376.484c-.796.279-1.485.8-1.97 1.49zM87.59 17a.492.492 0 0 1-.29.41.504.504 0 0 1-.25 0 5.001 5.001 0 0 1-2.84-1.21.502.502 0 0 1 .346-.861.5.5 0 0 1 .314.111 4.06 4.06 0 0 0 2.27 1 .502.502 0 0 1 .45.55zM90.11 9.47a4 4 0 0 0-2.28-1 .504.504 0 0 1-.457-.5.505.505 0 0 1 .547-.5 5.047 5.047 0 0 1 2.84 1.19.5.5 0 0 1 0 .71.35.35 0 0 1-.17.12.49.49 0 0 1-.48-.02zM91.46 14.69a.501.501 0 0 1 .12.7 5.001 5.001 0 0 1-2 1.66c-.153.07-.31.13-.47.18a.502.502 0 0 1-.716-.451c0-.235.166-.44.396-.489a4.154 4.154 0 0 0 2-1.48.502.502 0 0 1 .67-.12zM92 10.42a4.88 4.88 0 0 1 .36 3.06.508.508 0 0 1-.28.36.545.545 0 0 1-.31 0 .501.501 0 0 1-.39-.59 4 4 0 0 0-.28-2.45.512.512 0 0 1 .452-.736.47.47 0 0 1 .428.276l.02.08z"/><path d="M87.5 2C81.74 2 77 6.74 77 12.5S81.74 23 87.5 23 98 18.26 98 12.5 93.26 2 87.5 2zm0 19c-4.663 0-8.5-3.837-8.5-8.5S82.837 4 87.5 4 96 7.837 96 12.5c-.005 4.661-3.839 8.495-8.5 8.5z"/><path d="M83.86 14.17a.5.5 0 0 1-.24.67.472.472 0 0 1-.65-.23 5.006 5.006 0 0 1-.36-3 .512.512 0 0 1 .59-.4.501.501 0 0 1 .39.59 4 4 0 0 0 .27 2.37zM84.22 10.21a.472.472 0 0 1-.2.17.502.502 0 0 1-.5-.05.49.49 0 0 1-.12-.69 4.996 4.996 0 0 1 2.46-1.86.502.502 0 0 1 .706.456.502.502 0 0 1-.376.484c-.796.279-1.485.8-1.97 1.49zM87.59 17a.492.492 0 0 1-.29.41.504.504 0 0 1-.25 0 5.001 5.001 0 0 1-2.84-1.21.502.502 0 0 1 .346-.861.5.5 0 0 1 .314.111 4.06 4.06 0 0 0 2.27 1 .502.502 0 0 1 .45.55zM90.11 9.47a4 4 0 0 0-2.28-1 .504.504 0 0 1-.457-.5.505.505 0 0 1 .547-.5 5.047 5.047 0 0 1 2.84 1.19.5.5 0 0 1 0 .71.35.35 0 0 1-.17.12.49.49 0 0 1-.48-.02zM91.46 14.69a.501.501 0 0 1 .12.7 5.001 5.001 0 0 1-2 1.66c-.153.07-.31.13-.47.18a.502.502 0 0 1-.716-.451c0-.235.166-.44.396-.489a4.154 4.154 0 0 0 2-1.48.502.502 0 0 1 .67-.12zM92.4 13.48a.508.508 0 0 1-.28.36.545.545 0 0 1-.31 0 .501.501 0 0 1-.39-.59 4 4 0 0 0-.28-2.45.512.512 0 0 1 .452-.736.47.47 0 0 1 .428.276v.05c.461.961.594 2.046.38 3.09z"/><path d="M86.5 8.08a.502.502 0 0 0-.64-.3 4.996 4.996 0 0 0-2.46 1.86.49.49 0 0 0 .12.69.502.502 0 0 0 .5.05.472.472 0 0 0 .2-.17 4.046 4.046 0 0 1 2-1.49.512.512 0 0 0 .28-.64zM90.76 8.71a5.047 5.047 0 0 0-2.84-1.19l-.045-.002a.505.505 0 0 0-.502.502c0 .258.2.477.457.5a4 4 0 0 1 2.28 1 .491.491 0 0 0 .53.07.35.35 0 0 0 .17-.12.5.5 0 0 0-.05-.76zM83.86 14.17a3.999 3.999 0 0 1-.29-2.43.501.501 0 0 0-.39-.59.512.512 0 0 0-.59.4 5.006 5.006 0 0 0 .36 3 .47.47 0 0 0 .65.23.502.502 0 0 0 .26-.61zM92 10.42v-.05a.47.47 0 0 0-.65-.22.512.512 0 0 0-.23.68 4 4 0 0 1 .28 2.45.501.501 0 0 0 .39.59c.101.03.209.03.31 0a.508.508 0 0 0 .28-.36 4.878 4.878 0 0 0-.38-3.09zM87.14 16.48a4.06 4.06 0 0 1-2.27-1 .5.5 0 0 0-.66.75 5.001 5.001 0 0 0 2.84 1.21.504.504 0 0 0 .25 0 .492.492 0 0 0 .293-.462.502.502 0 0 0-.453-.498zM91.46 14.69a.502.502 0 0 0-.69.12 4.154 4.154 0 0 1-2 1.48.502.502 0 0 0-.396.489.503.503 0 0 0 .716.451c.16-.05.317-.11.47-.18a5.001 5.001 0 0 0 2-1.66.5.5 0 0 0-.1-.7z"/></g><g fill="#fff" fill-rule="nonzero"><path d="M115.8 20h-6.65a.903.903 0 0 1-.88-.76.894.894 0 0 1 .76-1c.23 0 .28-.11.3-.15a1.408 1.408 0 0 0 0-.88 6.928 6.928 0 0 1-1.73-2.6 10.8 10.8 0 0 1-.58-2.64 13.76 13.76 0 0 1-.08-1.71c.026-.879.27-1.738.71-2.5a5.665 5.665 0 0 1 2.4-2.3 5.233 5.233 0 0 1 2.57-.57h.21c1.15 0 4.21.09 5.56 1.47.17.17.61.63.41 1.12-.2.49-.8.52-1.32.52h-.07c.351.672.552 1.413.59 2.17v.29a20.996 20.996 0 0 1-.76 4.22 7.471 7.471 0 0 1-1.66 2.46 1.522 1.522 0 0 0 0 .93c.319.126.621.29.9.49a.85.85 0 0 1 .17.67.902.902 0 0 1-.85.77zm-6.15-1h5.53a1.364 1.364 0 0 1-.4-.39 2.622 2.622 0 0 1-.13-1.88v-.13l.1-.09a6.21 6.21 0 0 0 1.53-2.2c.475-1.227.71-2.534.69-3.85v-.36a4.512 4.512 0 0 0-.7-2.18.659.659 0 0 1 0-.68c.21-.38.69-.39 1.2-.4h.22c-1.12-1.06-4-1.12-4.89-1.14h-.23a4.437 4.437 0 0 0-2.11.47 4.68 4.68 0 0 0-2 1.93 4.259 4.259 0 0 0-.59 2.06c-.012.538.012 1.075.07 1.61.074.833.256 1.653.54 2.44a6.167 6.167 0 0 0 1.61 2.35l.1.1v.14a2.541 2.541 0 0 1-.15 1.82 1.274 1.274 0 0 1-.39.38zM123 2.29v3.42c0 .159-.131.29-.29.29h-.42a.292.292 0 0 1-.29-.29V3h-2.71a.292.292 0 0 1-.29-.29v-.42c0-.159.131-.29.29-.29h3.42c.159 0 .29.131.29.29zM122.71 23h-3.42a.292.292 0 0 1-.29-.29v-.42c0-.159.131-.29.29-.29H122v-2.71c0-.159.131-.29.29-.29h.42c.159 0 .29.131.29.29v3.42c0 .159-.131.29-.29.29zM102 22.71v-3.42c0-.159.131-.29.29-.29h.42c.159 0 .29.131.29.29V22h2.71c.159 0 .29.131.29.29v.42c0 .159-.131.29-.29.29h-3.42a.292.292 0 0 1-.29-.29zM102.29 2h3.42c.159 0 .29.131.29.29v.42c0 .159-.131.29-.29.29H103v2.71c0 .159-.131.29-.29.29h-.42a.292.292 0 0 1-.29-.29V2.29c0-.159.131-.29.29-.29z"/></g><path d="M142.54 5a.65.65 0 0 1 .57.36l2.2 4.8 1.35 1.16c.139.148.254.316.34.5V17h-19v-5.19a.63.63 0 0 1 .26-.51l1.58-1.17 1.74-4.7a.622.622 0 0 1 .6-.43H143m-12 5h12.71l-1.6-4h-9.37l-1.3 4m9.56 4h4v-2h-4v2m-11 0h4v-2h-4v2m17 4v2.35a.842.842 0 0 1-.76.65H144c-1 0-1-.65-1-.65V18h4m-15 0v2.36c0 .351-.289.64-.64.64h-2.72a.643.643 0 0 1-.64-.64V18h4m10.54-14h-10.36a1.614 1.614 0 0 0-1.55 1.13L129 9.5l-1.35 1a1.63 1.63 0 0 0-.66 1.31v8.55c.005.901.749 1.64 1.65 1.64h2.72a1.657 1.657 0 0 0 1.64-1.64V18h9v2.35a1.797 1.797 0 0 0 2 1.65h2.22a1.824 1.824 0 0 0 1.78-1.34l.05-.15v-9a1.282 1.282 0 0 0-.69-1l-1.18-1L144 4.94c-.278-.55-.844-.939-1.46-.94zm-9.07 3h8l.8 2h-9.41l.65-2h-.04z" fill="#fff" fill-rule="nonzero"/><g fill="#fff" fill-rule="nonzero"><path d="M193.5 23h-11a2.513 2.513 0 0 1-2.5-2.5v-.64c.005-3.213 2.647-5.855 5.86-5.86h4.28c3.213.005 5.855 2.647 5.86 5.86v.64c0 1.371-1.129 2.5-2.5 2.5zm-7.64-8c-2.664.005-4.855 2.196-4.86 4.86v.64c0 .823.677 1.5 1.5 1.5h11c.823 0 1.5-.677 1.5-1.5v-.64c-.005-2.664-2.196-4.855-4.86-4.86h-4.28zM187.63 13A4.145 4.145 0 0 1 184 8.79V6c0-2.194 1.806-4 4-4s4 1.806 4 4v3.017c0 2.194-1.806 4-4 4-.124 0-.247-.006-.37-.017zM188 3c-1.646 0-3 1.354-3 3v2.85a3.12 3.12 0 0 0 2.43 3.1c.188.036.379.055.57.055 1.646 0 3-1.355 3-3V6c0-1.646-1.354-3-3-3z"/></g><g fill="#fff"><path d="M220 24h-15c-.549 0-1-.451-1-1V2c0-.549.451-1 1-1h15c.549 0 1 .451 1 1v21c0 .549-.451 1-1 1zm-14-1h13c.549 0 1-.451 1-1V3c0-.549-.451-1-1-1h-13c-.549 0-1 .451-1 1v19c0 .549.451 1 1 1z" fill-rule="nonzero"/><path d="M207 5h11v1h-11zM207 8h11v1h-11zM207 11h11v1h-11zM207 14h11v1h-11zM207 17h6v1h-6z"/></g><g fill="#fff"><path d="M241 3.3v2.2a8.51 8.51 0 0 1 4.5 7.5c0 4.663-3.837 8.5-8.5 8.5s-8.5-3.837-8.5-8.5a8.51 8.51 0 0 1 4.5-7.5V3.3a10.518 10.518 0 0 0-6.5 9.708c0 5.76 4.74 10.5 10.5 10.5s10.5-4.74 10.5-10.5c0-4.245-2.575-8.091-6.5-9.708z" fill-rule="nonzero"/><path d="M238 1.25a.25.25 0 0 0-.25-.25h-1.5a.25.25 0 0 0-.25.25v9.5c0 .138.112.25.25.25h1.5a.25.25 0 0 0 .25-.25v-9.5z"/></g><path d="M171.26 7.06L171 7a1.362 1.362 0 0 0-1-1.32L158.13 3a1.366 1.366 0 0 0-1.62 1l-1.24 5.57a1.356 1.356 0 0 0 1 1.61l5.73 1.34V17h-3.15c-.385-1.189-1.5-2-2.75-2h-2.25a.854.854 0 0 0-.85.85v5.3c0 .466.384.85.85.85h2.25a2.906 2.906 0 0 0 2.76-2H164c.549 0 1-.451 1-1v-5.81l3.07.69c.096.01.194.01.29 0 .258.001.512-.072.73-.21.217-.14.39-.337.5-.57l.29.07a2.917 2.917 0 0 0 3.47-2.17l.11-.47a2.923 2.923 0 0 0-2.2-3.47zM156 21h-2v-5h2.1a1.926 1.926 0 0 1 1.9 1.61c.012.096.012.194 0 .29v1.2c.012.096.012.194 0 .29v.12a2.184 2.184 0 0 1-2 1.49zm8-2h-5v-1h3c.549 0 1-.451 1-1v-3.87l1 .23V19zm4.71-6.37a.342.342 0 0 1-.41.23l-11.77-2.64a.36.36 0 0 1-.22-.16.319.319 0 0 1 0-.27l1.24-5.56a.352.352 0 0 1 .35-.27h.08l11.76 2.63a.36.36 0 0 1 .22.16c.046.075.06.165.04.25a.215.215 0 0 1 0 .08l-1.29 5.55zm3.77-2.32l-.11.47a1.919 1.919 0 0 1-2.27 1.44l-.26-.06.93-4.16h.23a1.916 1.916 0 0 1 1.48 2.31z" fill="#fff" fill-rule="nonzero"/><g fill="#fff" fill-rule="nonzero"><path d="M37.49 5.06a3.707 3.707 0 0 0-3.67 3.69 3.708 3.708 0 0 0 3.69 3.69 3.708 3.708 0 0 0 3.69-3.69v-.01a3.737 3.737 0 0 0-3.71-3.68zm0 6.19a2.492 2.492 0 0 1-2.45-2.48c0-1.36 1.12-2.48 2.48-2.48 1.36 0 2.48 1.12 2.48 2.48v.01a2.482 2.482 0 0 1-2.47 2.47h-.04z"/><path d="M46.6 22.47l-2.48-5.8a1.102 1.102 0 0 0-1-.67h-1c1.59-2.66 3-5.52 3-7.35 0-4.197-3.453-7.65-7.65-7.65-4.197 0-7.65 3.453-7.65 7.65 0 1.83 1.4 4.69 3 7.35h-1c-.436.005-.83.269-1 .67l-2.48 5.8a1.093 1.093 0 0 0-.093.44c0 .598.492 1.09 1.09 1.09h16.256c.598 0 1.09-.492 1.09-1.09 0-.152-.032-.301-.093-.44h.01zM30.85 8.65C30.85 5.002 33.852 2 37.5 2c3.648 0 6.65 3.002 6.65 6.65 0 1.74-1.54 4.71-3.16 7.35-.21.34-.42.68-.63 1-1.06 1.67-2.08 3.1-2.64 3.87-.14.19-.3.19-.44 0-.56-.77-1.58-2.2-2.64-3.87-.21-.32-.42-.66-.63-1-1.62-2.64-3.16-5.61-3.16-7.35zM45.59 23H29.41l-.09-.14 2.48-5.8a.111.111 0 0 1 .09-.06h1.57c1.12 1.79 2.26 3.41 3 4.45a1.27 1.27 0 0 0 2.06 0c.75-1 1.89-2.66 3-4.45h1.57a.111.111 0 0 1 .09.06L45.67 23a.081.081 0 0 1-.08 0z"/></g></svg>